Plot: A homicide detective is pushed to the brink of his moral and physical limits as he tangles with a ferociously skilled serial killer who specializes in torture and pain.



Director:
Rob Cohen

Writers:
Marc Moss (screenplay), Kerry Williamson (screenplay)

Stars:
Tyler Perry, Matthew Fox and Rachel Nichols

Genres:
Action | Crime | Mystery | Thriller 




Format : AVI
Format/Info : Audio Video Interleave
File size : 1.39 GiB
Duration : 1h 33mn
Overall bit rate : 2 118 Kbps
Writing application : VirtualDubMod 1.5.10.2 (build 2540/release)
Writing library : VirtualDubMod build 2540/release

Video
ID : 0
Format : MPEG-4 Visual
Format profile : Advanced Simple@L5
Format settings, BVOP : 2
Format settings, QPel : No
Format settings, GMC : No warppoints
Format settings, Matrix : Default (H.263)
Muxing mode : Packed bitstream
Codec ID : XVID
Codec ID/Hint : XviD
Duration : 1h 33mn
Bit rate : 1 978 Kbps
Width : 624 pixels
Height : 332 pixels
Display aspect ratio : 1.880
Frame rate : 29.970 fps
Color space : YUV
Chroma subsampling : 4:2:0
Bit depth : 8 bits
Scan type : Progressive
Compression mode : Lossy
Bits/(Pixel*Frame) : 0.319
Stream size : 1.29 GiB (93%)
Writing library : XviD 64

Audio
ID : 1
Format : MPEG Audio
Format version : Version 1
Format profile : Layer 3
Codec ID : 55
Codec ID/Hint : MP3
Duration : 1h 33mn
Bit rate mode : Constant
Bit rate : 128 Kbps
Channel(s) : 2 channels
Sampling rate : 48.0 KHz
Compression mode : Lossy
Stream size : 85.8 MiB (6%)
Alignment : Split accross interleaves
Interleave, duration : 33 ms (1.00 video frame)
Interleave, preload duration : 500 ms




 
http://www.imdb.com/title/tt1712170/





Ratings: 4.9/10 from 1,438 users Metascore: 33/100
Reviews: 15 user | 29 critic | 28 from Metacritic.com

A homicide detective is pushed to the brink of his moral and physical limits as he tangles with a ferociously skilled serial killer who specializes in torture and pain.

Director:
Rob Cohen
Writers:
Marc Moss (screenplay), Kerry Williamson (screenplay), and 1 more credit ┬╗
Stars:
Tyler Perry, Matthew Fox and Rachel Nichols | See full cast and crew






Source Used




HP...........Thanks



Source has its issues but its more than watchable but check out that all important sample 1st begfore downloading





Enjoy


Greets


INSPiRAL,LEGION,iLLUSiON,DiLLON,THORN,DQ1,26K,ETRG/SeeN/CM8 .......and thats about it